<?xml version="1.0" encoding="UTF-8" standalone="no"?>
<!DOCTYPE svg PUBLIC "-//W3C//DTD SVG 1.1//EN" "http://www.w3.org/Graphics/SVG/1.1/DTD/svg11.dtd">
<svg width="100%" height="100%" viewBox="0 0 2276 501" version="1.1" xmlns="http://www.w3.org/2000/svg" xmlns:xlink="http://www.w3.org/1999/xlink" xml:space="preserve" xmlns:serif="http://www.serif.com/" style="fill-rule:evenodd;clip-rule:evenodd;stroke-linecap:square;stroke-miterlimit:1.5;">
    <g transform="matrix(1,0,0,1,-102.543,-1497.62)">
        <g transform="matrix(1,0,0,1,-8067.65,0)">
            <g transform="matrix(1,0,0,0.937861,12.4593,-109.871)">
                <rect x="8161.49" y="1718" width="2267.72" height="526" style="fill:url(#_Radial1);stroke:black;stroke-width:4.3px;"/>
            </g>
        </g>
        <g transform="matrix(1,0,0,1,-8067.65,0)">
            <g id="arrows" transform="matrix(1,0,0,1,0,-252.563)">
                <g transform="matrix(1.36935,0,0,1.73586,-3093.06,-709.57)">
                    <g transform="matrix(0.730273,-0,-0,0.576083,8225.25,1417.02)">
                        <path d="M535.642,225.456L527.257,186.827L510.787,222.761L535.642,225.456Z"/>
                        <path d="M524.023,216.652C509.941,280.575 451.534,328.559 381.709,328.559C301.378,328.559 236.16,265.051 236.16,186.827" style="fill:none;stroke:black;stroke-width:8.33px;"/>
                    </g>
                </g>
                <g transform="matrix(1.37191,0,0,1.69479,-2736.92,-650.309)">
                    <g transform="matrix(0.728913,-0,-0,0.590043,7950.34,1416.39)">
                        <path d="M913.564,222.148L905.391,183.473L888.725,219.317L913.564,222.148Z"/>
                        <path d="M901.993,213.28C887.612,275.348 829.269,321.853 759.571,321.853C679.091,321.853 613.751,259.847 613.751,183.473" style="fill:none;stroke:black;stroke-width:8.33px;"/>
                    </g>
                </g>
                <g transform="matrix(1.37065,0,0,2.13388,-2348.24,-1317.63)">
                    <g transform="matrix(0.729581,-0,-0,0.46863,7674.05,1437.67)">
                        <path d="M1293.05,223.906L1283.26,185.609L1268.11,222.119L1293.05,223.906Z"/>
                        <path d="M1281.11,215.532C1269.24,297.456 1209.45,359.839 1137.57,359.839C1057.16,359.839 991.884,281.769 991.884,185.609" style="fill:none;stroke:black;stroke-width:8.33px;"/>
                    </g>
                </g>
                <g transform="matrix(1.37016,0,0,1.69479,-1966.26,-650.309)">
                    <g transform="matrix(0.729842,-0,-0,0.590043,7398.01,1416.39)">
                        <path d="M1669.2,222.147L1661.02,183.473L1644.36,219.319L1669.2,222.147Z"/>
                        <path d="M1657.63,213.281C1643.26,275.348 1585,321.853 1515.39,321.853C1435.01,321.853 1369.75,259.847 1369.75,183.473" style="fill:none;stroke:black;stroke-width:8.33px;"/>
                    </g>
                </g>
                <g transform="matrix(1.37195,0,0,1.69479,-1603.51,-650.309)">
                    <g transform="matrix(0.728891,-0,-0,0.590043,7123.96,1416.39)">
                        <path d="M2047.34,222.148L2039.16,183.473L2022.5,219.317L2047.34,222.148Z"/>
                        <path d="M2035.77,213.28C2021.38,275.348 1963.04,321.853 1893.34,321.853C1812.86,321.853 1747.51,259.847 1747.51,183.473" style="fill:none;stroke:black;stroke-width:8.33px;"/>
                    </g>
                </g>
            </g>
        </g>
        <g transform="matrix(1,0,0,1,-8067.65,0)">
            <g transform="matrix(0.790894,0.00067506,-0.000526166,0.501408,-483.527,1413.1)">
                <rect x="11720.7" y="759.252" width="363.914" height="115.481" style="fill:rgb(255,203,0);"/>
                <clipPath id="_clip2">
                    <rect x="11720.7" y="759.252" width="363.914" height="115.481"/>
                </clipPath>
                <g clip-path="url(#_clip2)">
                    <g transform="matrix(1,-1.68519e-34,0,1,78.1133,-91.6456)">
                        <rect x="11642.6" y="850.898" width="363.914" height="115.481" style="fill:rgb(115,219,154);"/>
                        <path d="M12006.5,850.898L12006.5,966.379L11642.6,966.379L11642.6,850.898L12006.5,850.898ZM11645.2,962.224L12003.8,962.224L12003.8,855.053L11645.2,855.053L11645.2,962.224Z"/>
                    </g>
                    <g transform="matrix(0.740104,-0.00110484,0.00070044,1.1674,11157.3,-60.0845)">
                        <g transform="matrix(50,0,0,50,855.93,767.021)">
                            <path d="M0.16,-0.423C0.188,-0.468 0.221,-0.503 0.26,-0.526C0.299,-0.549 0.334,-0.561 0.367,-0.561C0.412,-0.561 0.453,-0.541 0.49,-0.501C0.526,-0.462 0.544,-0.402 0.544,-0.322C0.544,-0.259 0.532,-0.203 0.508,-0.153C0.484,-0.103 0.451,-0.064 0.411,-0.035C0.371,-0.007 0.321,0.008 0.261,0.008C0.244,0.008 0.218,0.006 0.183,0.002C0.178,0.002 0.17,0.001 0.16,0L0.16,0.212L0.069,0.212L0.069,-0.545L0.16,-0.545L0.16,-0.423ZM0.16,-0.315L0.16,-0.081C0.193,-0.073 0.223,-0.068 0.25,-0.068C0.306,-0.068 0.352,-0.09 0.389,-0.133C0.427,-0.176 0.446,-0.235 0.446,-0.31C0.446,-0.364 0.436,-0.405 0.415,-0.433C0.395,-0.46 0.371,-0.474 0.345,-0.474C0.317,-0.474 0.286,-0.459 0.252,-0.431C0.218,-0.402 0.187,-0.363 0.16,-0.315Z" style="fill-rule:nonzero;"/>
                        </g>
                        <g transform="matrix(50,0,0,50,885.935,767.021)">
                            <path d="M0.434,-0.123C0.406,-0.077 0.373,-0.043 0.334,-0.02C0.295,0.004 0.26,0.015 0.227,0.015C0.181,0.015 0.141,-0.005 0.104,-0.044C0.068,-0.083 0.05,-0.143 0.05,-0.223C0.05,-0.286 0.062,-0.343 0.086,-0.392C0.11,-0.442 0.142,-0.481 0.183,-0.51C0.223,-0.539 0.273,-0.553 0.333,-0.553C0.35,-0.553 0.376,-0.551 0.411,-0.548C0.416,-0.547 0.424,-0.546 0.434,-0.545L0.525,-0.545L0.525,-0.16C0.525,-0.094 0.532,-0.041 0.546,0L0.451,0C0.444,-0.03 0.438,-0.071 0.434,-0.123ZM0.434,-0.23L0.434,-0.464C0.402,-0.473 0.372,-0.477 0.344,-0.477C0.288,-0.477 0.242,-0.455 0.204,-0.412C0.167,-0.369 0.148,-0.31 0.148,-0.235C0.148,-0.181 0.159,-0.141 0.179,-0.113C0.199,-0.086 0.222,-0.072 0.249,-0.072C0.277,-0.072 0.308,-0.086 0.342,-0.115C0.376,-0.143 0.407,-0.182 0.434,-0.23Z" style="fill-rule:nonzero;"/>
                        </g>
                        <g transform="matrix(50,0,0,50,915.94,767.021)">
                            <path d="M0.122,0L0.122,-0.545L0.213,-0.545L0.213,-0.426C0.241,-0.471 0.274,-0.505 0.31,-0.527C0.347,-0.549 0.388,-0.561 0.433,-0.561C0.465,-0.561 0.498,-0.556 0.531,-0.545L0.531,-0.349L0.444,-0.349L0.444,-0.473C0.429,-0.476 0.417,-0.477 0.408,-0.477C0.374,-0.477 0.341,-0.464 0.308,-0.437C0.276,-0.41 0.244,-0.37 0.213,-0.317L0.213,0L0.122,0Z" style="fill-rule:nonzero;"/>
                        </g>
                        <g transform="matrix(50,0,0,50,945.945,767.021)">
                            <path d="M0.082,-0.029L0.082,-0.125C0.118,-0.101 0.157,-0.085 0.198,-0.075C0.238,-0.065 0.273,-0.061 0.301,-0.061C0.347,-0.061 0.38,-0.068 0.4,-0.083C0.421,-0.098 0.431,-0.116 0.431,-0.138C0.431,-0.153 0.426,-0.165 0.417,-0.176C0.407,-0.186 0.384,-0.199 0.346,-0.214L0.315,-0.227L0.252,-0.252C0.184,-0.278 0.142,-0.303 0.124,-0.325C0.106,-0.347 0.097,-0.374 0.097,-0.406C0.097,-0.451 0.115,-0.488 0.149,-0.517C0.184,-0.546 0.24,-0.561 0.318,-0.561C0.376,-0.561 0.431,-0.552 0.483,-0.535L0.483,-0.453C0.424,-0.474 0.367,-0.485 0.314,-0.485C0.276,-0.485 0.246,-0.478 0.224,-0.465C0.203,-0.451 0.192,-0.434 0.192,-0.414C0.192,-0.395 0.201,-0.379 0.22,-0.367C0.239,-0.355 0.269,-0.342 0.311,-0.327L0.373,-0.304C0.429,-0.284 0.468,-0.261 0.491,-0.237C0.514,-0.213 0.525,-0.183 0.525,-0.147C0.525,-0.1 0.507,-0.061 0.471,-0.031C0.435,0 0.377,0.015 0.297,0.015C0.227,0.015 0.156,0 0.082,-0.029Z" style="fill-rule:nonzero;"/>
                        </g>
                        <g transform="matrix(50,0,0,50,975.95,767.021)">
                            <path d="M0.529,-0.036C0.457,-0.002 0.388,0.016 0.323,0.016C0.274,0.016 0.23,0.003 0.191,-0.021C0.153,-0.045 0.122,-0.08 0.098,-0.126C0.075,-0.171 0.063,-0.22 0.063,-0.271C0.063,-0.321 0.075,-0.369 0.097,-0.415C0.119,-0.461 0.15,-0.497 0.189,-0.522C0.229,-0.548 0.273,-0.561 0.322,-0.561C0.387,-0.561 0.439,-0.537 0.478,-0.491C0.517,-0.445 0.537,-0.374 0.537,-0.277L0.537,-0.258L0.161,-0.258C0.161,-0.22 0.169,-0.186 0.185,-0.154C0.201,-0.123 0.221,-0.1 0.247,-0.084C0.273,-0.068 0.302,-0.061 0.335,-0.061C0.394,-0.061 0.458,-0.08 0.529,-0.119L0.529,-0.036ZM0.167,-0.326L0.438,-0.326L0.438,-0.339C0.438,-0.383 0.428,-0.419 0.406,-0.445C0.384,-0.472 0.355,-0.485 0.318,-0.485C0.282,-0.485 0.25,-0.471 0.223,-0.445C0.196,-0.418 0.177,-0.378 0.167,-0.326Z" style="fill-rule:nonzero;"/>
                        </g>
                        <g transform="matrix(50,0,0,50,1005.95,767.021)">
                            <path d="M0.122,0L0.122,-0.545L0.213,-0.545L0.213,-0.426C0.241,-0.471 0.274,-0.505 0.31,-0.527C0.347,-0.549 0.388,-0.561 0.433,-0.561C0.465,-0.561 0.498,-0.556 0.531,-0.545L0.531,-0.349L0.444,-0.349L0.444,-0.473C0.429,-0.476 0.417,-0.477 0.408,-0.477C0.374,-0.477 0.341,-0.464 0.308,-0.437C0.276,-0.41 0.244,-0.37 0.213,-0.317L0.213,0L0.122,0Z" style="fill-rule:nonzero;"/>
                        </g>
                        <g transform="matrix(50,0,0,50,1035.96,767.021)">
                            <path d="M0.3,0.023C0.278,0.023 0.259,0.015 0.244,0C0.228,-0.016 0.22,-0.035 0.22,-0.057C0.22,-0.079 0.228,-0.098 0.244,-0.113C0.26,-0.128 0.278,-0.136 0.3,-0.136C0.321,-0.136 0.34,-0.128 0.356,-0.113C0.372,-0.098 0.379,-0.079 0.379,-0.057C0.379,-0.035 0.372,-0.016 0.356,0C0.34,0.015 0.322,0.023 0.3,0.023Z" style="fill-rule:nonzero;"/>
                        </g>
                        <g transform="matrix(50,0,0,50,1065.96,767.021)">
                            <path d="M0.535,-0.016C0.474,0.005 0.416,0.015 0.361,0.015C0.306,0.015 0.258,0.003 0.215,-0.023C0.173,-0.048 0.139,-0.082 0.116,-0.125C0.092,-0.168 0.08,-0.217 0.08,-0.272C0.08,-0.355 0.107,-0.424 0.161,-0.479C0.215,-0.533 0.28,-0.561 0.356,-0.561C0.412,-0.561 0.472,-0.55 0.535,-0.529L0.535,-0.441C0.471,-0.47 0.414,-0.485 0.364,-0.485C0.331,-0.485 0.3,-0.477 0.271,-0.46C0.241,-0.444 0.219,-0.418 0.203,-0.383C0.187,-0.348 0.179,-0.313 0.179,-0.276C0.179,-0.227 0.194,-0.18 0.225,-0.135C0.256,-0.091 0.304,-0.068 0.37,-0.068C0.389,-0.068 0.409,-0.07 0.428,-0.073C0.447,-0.075 0.483,-0.085 0.535,-0.103L0.535,-0.016Z" style="fill-rule:nonzero;"/>
                        </g>
                        <g transform="matrix(50,0,0,50,1095.97,767.021)">
                            <path d="M0.16,-0.423C0.188,-0.468 0.221,-0.503 0.26,-0.526C0.299,-0.549 0.334,-0.561 0.367,-0.561C0.412,-0.561 0.453,-0.541 0.49,-0.501C0.526,-0.462 0.544,-0.402 0.544,-0.322C0.544,-0.259 0.532,-0.203 0.508,-0.153C0.484,-0.103 0.451,-0.064 0.411,-0.035C0.371,-0.007 0.321,0.008 0.261,0.008C0.244,0.008 0.218,0.006 0.183,0.002C0.178,0.002 0.17,0.001 0.16,0L0.16,0.212L0.069,0.212L0.069,-0.545L0.16,-0.545L0.16,-0.423ZM0.16,-0.315L0.16,-0.081C0.193,-0.073 0.223,-0.068 0.25,-0.068C0.306,-0.068 0.352,-0.09 0.389,-0.133C0.427,-0.176 0.446,-0.235 0.446,-0.31C0.446,-0.364 0.436,-0.405 0.415,-0.433C0.395,-0.46 0.371,-0.474 0.345,-0.474C0.317,-0.474 0.286,-0.459 0.252,-0.431C0.218,-0.402 0.187,-0.363 0.16,-0.315Z" style="fill-rule:nonzero;"/>
                        </g>
                        <g transform="matrix(50,0,0,50,1125.97,767.021)">
                            <path d="M0.16,-0.423C0.188,-0.468 0.221,-0.503 0.26,-0.526C0.299,-0.549 0.334,-0.561 0.367,-0.561C0.412,-0.561 0.453,-0.541 0.49,-0.501C0.526,-0.462 0.544,-0.402 0.544,-0.322C0.544,-0.259 0.532,-0.203 0.508,-0.153C0.484,-0.103 0.451,-0.064 0.411,-0.035C0.371,-0.007 0.321,0.008 0.261,0.008C0.244,0.008 0.218,0.006 0.183,0.002C0.178,0.002 0.17,0.001 0.16,0L0.16,0.212L0.069,0.212L0.069,-0.545L0.16,-0.545L0.16,-0.423ZM0.16,-0.315L0.16,-0.081C0.193,-0.073 0.223,-0.068 0.25,-0.068C0.306,-0.068 0.352,-0.09 0.389,-0.133C0.427,-0.176 0.446,-0.235 0.446,-0.31C0.446,-0.364 0.436,-0.405 0.415,-0.433C0.395,-0.46 0.371,-0.474 0.345,-0.474C0.317,-0.474 0.286,-0.459 0.252,-0.431C0.218,-0.402 0.187,-0.363 0.16,-0.315Z" style="fill-rule:nonzero;"/>
                        </g>
                    </g>
                </g>
            </g>
        </g>
        <g transform="matrix(1,0,0,1,-8067.65,0)">
            <g transform="matrix(0.790894,0.00067506,-0.000526166,0.501408,-861.48,1413.1)">
                <rect x="11720.7" y="759.252" width="363.914" height="115.481" style="fill:rgb(255,203,0);"/>
                <clipPath id="_clip3">
                    <rect x="11720.7" y="759.252" width="363.914" height="115.481"/>
                </clipPath>
                <g clip-path="url(#_clip3)">
                    <g transform="matrix(1,-1.68519e-34,0,1,78.1133,-91.6456)">
                        <rect x="11642.6" y="850.898" width="363.914" height="115.481" style="fill:rgb(115,219,154);"/>
                        <path d="M12006.5,850.898L12006.5,966.379L11642.6,966.379L11642.6,850.898L12006.5,850.898ZM11645.2,962.224L12003.8,962.224L12003.8,855.053L11645.2,855.053L11645.2,962.224Z"/>
                    </g>
                    <g transform="matrix(0.740104,-0.00110484,0.00070044,1.1674,11157.7,-60.0541)">
                        <g transform="matrix(50,0,0,50,810.923,767.021)">
                            <path d="M0.532,-0.022C0.489,-0.004 0.458,0.007 0.439,0.01C0.42,0.013 0.401,0.015 0.383,0.015C0.345,0.015 0.31,0.008 0.279,-0.007C0.247,-0.021 0.223,-0.043 0.207,-0.072C0.191,-0.1 0.183,-0.145 0.183,-0.205L0.183,-0.424L0.047,-0.424L0.047,-0.5L0.183,-0.5L0.183,-0.72L0.274,-0.72L0.274,-0.5L0.517,-0.5L0.517,-0.424L0.274,-0.424L0.274,-0.206C0.274,-0.162 0.279,-0.131 0.29,-0.113C0.3,-0.095 0.314,-0.082 0.331,-0.073C0.349,-0.065 0.369,-0.061 0.393,-0.061C0.437,-0.061 0.483,-0.074 0.532,-0.102L0.532,-0.022Z" style="fill-rule:nonzero;"/>
                        </g>
                        <g transform="matrix(50,0,0,50,840.928,767.021)">
                            <path d="M0.3,0.015C0.222,0.015 0.16,-0.012 0.113,-0.067C0.066,-0.121 0.042,-0.19 0.042,-0.273C0.042,-0.356 0.066,-0.425 0.113,-0.479C0.16,-0.533 0.222,-0.561 0.3,-0.561C0.378,-0.561 0.44,-0.533 0.487,-0.479C0.534,-0.425 0.558,-0.356 0.558,-0.273C0.558,-0.19 0.534,-0.121 0.487,-0.067C0.44,-0.012 0.378,0.015 0.3,0.015ZM0.3,-0.061C0.349,-0.061 0.387,-0.079 0.416,-0.117C0.445,-0.155 0.459,-0.207 0.459,-0.273C0.459,-0.339 0.445,-0.39 0.416,-0.428C0.387,-0.466 0.349,-0.485 0.3,-0.485C0.251,-0.485 0.213,-0.466 0.184,-0.428C0.155,-0.39 0.141,-0.339 0.141,-0.273C0.141,-0.207 0.155,-0.155 0.184,-0.117C0.213,-0.079 0.251,-0.061 0.3,-0.061Z" style="fill-rule:nonzero;"/>
                        </g>
                        <g transform="matrix(50,0,0,50,870.933,767.021)">
                            <path d="M0.1,0L0.1,-0.788L0.191,-0.788L0.191,-0.293L0.453,-0.545L0.574,-0.545L0.313,-0.293L0.581,0L0.456,0L0.191,-0.293L0.191,0L0.1,0Z" style="fill-rule:nonzero;"/>
                        </g>
                        <g transform="matrix(50,0,0,50,900.938,767.021)">
                            <path d="M0.529,-0.036C0.457,-0.002 0.388,0.016 0.323,0.016C0.274,0.016 0.23,0.003 0.191,-0.021C0.153,-0.045 0.122,-0.08 0.098,-0.126C0.075,-0.171 0.063,-0.22 0.063,-0.271C0.063,-0.321 0.075,-0.369 0.097,-0.415C0.119,-0.461 0.15,-0.497 0.189,-0.522C0.229,-0.548 0.273,-0.561 0.322,-0.561C0.387,-0.561 0.439,-0.537 0.478,-0.491C0.517,-0.445 0.537,-0.374 0.537,-0.277L0.537,-0.258L0.161,-0.258C0.161,-0.22 0.169,-0.186 0.185,-0.154C0.201,-0.123 0.221,-0.1 0.247,-0.084C0.273,-0.068 0.302,-0.061 0.335,-0.061C0.394,-0.061 0.458,-0.08 0.529,-0.119L0.529,-0.036ZM0.167,-0.326L0.438,-0.326L0.438,-0.339C0.438,-0.383 0.428,-0.419 0.406,-0.445C0.384,-0.472 0.355,-0.485 0.318,-0.485C0.282,-0.485 0.25,-0.471 0.223,-0.445C0.196,-0.418 0.177,-0.378 0.167,-0.326Z" style="fill-rule:nonzero;"/>
                        </g>
                        <g transform="matrix(50,0,0,50,930.943,767.021)">
                            <path d="M0.076,0L0.076,-0.545L0.167,-0.545L0.167,-0.426C0.193,-0.468 0.224,-0.501 0.261,-0.525C0.298,-0.549 0.334,-0.561 0.371,-0.561C0.403,-0.561 0.433,-0.552 0.459,-0.535C0.485,-0.518 0.504,-0.495 0.514,-0.468C0.525,-0.44 0.53,-0.386 0.53,-0.305L0.53,0L0.439,0L0.439,-0.316C0.439,-0.368 0.437,-0.403 0.432,-0.42C0.427,-0.436 0.418,-0.45 0.404,-0.461C0.391,-0.472 0.376,-0.477 0.36,-0.477C0.328,-0.477 0.294,-0.462 0.257,-0.432C0.22,-0.401 0.19,-0.363 0.167,-0.318L0.167,0L0.076,0Z" style="fill-rule:nonzero;"/>
                        </g>
                        <g transform="matrix(50,0,0,50,960.947,767.021)">
                            <path d="M0.229,0L0.229,-0.47L0.077,-0.47L0.077,-0.545L0.319,-0.545L0.319,-0.076L0.471,-0.076L0.471,0L0.229,0ZM0.213,-0.742C0.213,-0.763 0.22,-0.778 0.234,-0.788C0.248,-0.798 0.262,-0.803 0.274,-0.803C0.287,-0.803 0.3,-0.798 0.314,-0.788C0.328,-0.778 0.335,-0.763 0.335,-0.742C0.335,-0.722 0.328,-0.707 0.314,-0.697C0.3,-0.687 0.287,-0.682 0.274,-0.682C0.262,-0.682 0.248,-0.687 0.234,-0.697C0.22,-0.707 0.213,-0.722 0.213,-0.742Z" style="fill-rule:nonzero;"/>
                        </g>
                        <g transform="matrix(50,0,0,50,990.952,767.021)">
                            <path d="M0.065,0L0.065,-0.083L0.399,-0.47L0.073,-0.47L0.073,-0.545L0.52,-0.545L0.52,-0.47L0.183,-0.083L0.531,-0.083L0.531,0L0.065,0Z" style="fill-rule:nonzero;"/>
                        </g>
                        <g transform="matrix(50,0,0,50,1020.96,767.021)">
                            <path d="M0.529,-0.036C0.457,-0.002 0.388,0.016 0.323,0.016C0.274,0.016 0.23,0.003 0.191,-0.021C0.153,-0.045 0.122,-0.08 0.098,-0.126C0.075,-0.171 0.063,-0.22 0.063,-0.271C0.063,-0.321 0.075,-0.369 0.097,-0.415C0.119,-0.461 0.15,-0.497 0.189,-0.522C0.229,-0.548 0.273,-0.561 0.322,-0.561C0.387,-0.561 0.439,-0.537 0.478,-0.491C0.517,-0.445 0.537,-0.374 0.537,-0.277L0.537,-0.258L0.161,-0.258C0.161,-0.22 0.169,-0.186 0.185,-0.154C0.201,-0.123 0.221,-0.1 0.247,-0.084C0.273,-0.068 0.302,-0.061 0.335,-0.061C0.394,-0.061 0.458,-0.08 0.529,-0.119L0.529,-0.036ZM0.167,-0.326L0.438,-0.326L0.438,-0.339C0.438,-0.383 0.428,-0.419 0.406,-0.445C0.384,-0.472 0.355,-0.485 0.318,-0.485C0.282,-0.485 0.25,-0.471 0.223,-0.445C0.196,-0.418 0.177,-0.378 0.167,-0.326Z" style="fill-rule:nonzero;"/>
                        </g>
                        <g transform="matrix(50,0,0,50,1050.96,767.021)">
                            <path d="M0.122,0L0.122,-0.545L0.213,-0.545L0.213,-0.426C0.241,-0.471 0.274,-0.505 0.31,-0.527C0.347,-0.549 0.388,-0.561 0.433,-0.561C0.465,-0.561 0.498,-0.556 0.531,-0.545L0.531,-0.349L0.444,-0.349L0.444,-0.473C0.429,-0.476 0.417,-0.477 0.408,-0.477C0.374,-0.477 0.341,-0.464 0.308,-0.437C0.276,-0.41 0.244,-0.37 0.213,-0.317L0.213,0L0.122,0Z" style="fill-rule:nonzero;"/>
                        </g>
                        <g transform="matrix(50,0,0,50,1080.97,767.021)">
                            <path d="M0.3,0.023C0.278,0.023 0.259,0.015 0.244,0C0.228,-0.016 0.22,-0.035 0.22,-0.057C0.22,-0.079 0.228,-0.098 0.244,-0.113C0.26,-0.128 0.278,-0.136 0.3,-0.136C0.321,-0.136 0.34,-0.128 0.356,-0.113C0.372,-0.098 0.379,-0.079 0.379,-0.057C0.379,-0.035 0.372,-0.016 0.356,0C0.34,0.015 0.322,0.023 0.3,0.023Z" style="fill-rule:nonzero;"/>
                        </g>
                        <g transform="matrix(50,0,0,50,1110.97,767.021)">
                            <path d="M0.535,-0.016C0.474,0.005 0.416,0.015 0.361,0.015C0.306,0.015 0.258,0.003 0.215,-0.023C0.173,-0.048 0.139,-0.082 0.116,-0.125C0.092,-0.168 0.08,-0.217 0.08,-0.272C0.08,-0.355 0.107,-0.424 0.161,-0.479C0.215,-0.533 0.28,-0.561 0.356,-0.561C0.412,-0.561 0.472,-0.55 0.535,-0.529L0.535,-0.441C0.471,-0.47 0.414,-0.485 0.364,-0.485C0.331,-0.485 0.3,-0.477 0.271,-0.46C0.241,-0.444 0.219,-0.418 0.203,-0.383C0.187,-0.348 0.179,-0.313 0.179,-0.276C0.179,-0.227 0.194,-0.18 0.225,-0.135C0.256,-0.091 0.304,-0.068 0.37,-0.068C0.389,-0.068 0.409,-0.07 0.428,-0.073C0.447,-0.075 0.483,-0.085 0.535,-0.103L0.535,-0.016Z" style="fill-rule:nonzero;"/>
                        </g>
                        <g transform="matrix(50,0,0,50,1140.98,767.021)">
                            <path d="M0.16,-0.423C0.188,-0.468 0.221,-0.503 0.26,-0.526C0.299,-0.549 0.334,-0.561 0.367,-0.561C0.412,-0.561 0.453,-0.541 0.49,-0.501C0.526,-0.462 0.544,-0.402 0.544,-0.322C0.544,-0.259 0.532,-0.203 0.508,-0.153C0.484,-0.103 0.451,-0.064 0.411,-0.035C0.371,-0.007 0.321,0.008 0.261,0.008C0.244,0.008 0.218,0.006 0.183,0.002C0.178,0.002 0.17,0.001 0.16,0L0.16,0.212L0.069,0.212L0.069,-0.545L0.16,-0.545L0.16,-0.423ZM0.16,-0.315L0.16,-0.081C0.193,-0.073 0.223,-0.068 0.25,-0.068C0.306,-0.068 0.352,-0.09 0.389,-0.133C0.427,-0.176 0.446,-0.235 0.446,-0.31C0.446,-0.364 0.436,-0.405 0.415,-0.433C0.395,-0.46 0.371,-0.474 0.345,-0.474C0.317,-0.474 0.286,-0.459 0.252,-0.431C0.218,-0.402 0.187,-0.363 0.16,-0.315Z" style="fill-rule:nonzero;"/>
                        </g>
                        <g transform="matrix(50,0,0,50,1170.98,767.021)">
                            <path d="M0.16,-0.423C0.188,-0.468 0.221,-0.503 0.26,-0.526C0.299,-0.549 0.334,-0.561 0.367,-0.561C0.412,-0.561 0.453,-0.541 0.49,-0.501C0.526,-0.462 0.544,-0.402 0.544,-0.322C0.544,-0.259 0.532,-0.203 0.508,-0.153C0.484,-0.103 0.451,-0.064 0.411,-0.035C0.371,-0.007 0.321,0.008 0.261,0.008C0.244,0.008 0.218,0.006 0.183,0.002C0.178,0.002 0.17,0.001 0.16,0L0.16,0.212L0.069,0.212L0.069,-0.545L0.16,-0.545L0.16,-0.423ZM0.16,-0.315L0.16,-0.081C0.193,-0.073 0.223,-0.068 0.25,-0.068C0.306,-0.068 0.352,-0.09 0.389,-0.133C0.427,-0.176 0.446,-0.235 0.446,-0.31C0.446,-0.364 0.436,-0.405 0.415,-0.433C0.395,-0.46 0.371,-0.474 0.345,-0.474C0.317,-0.474 0.286,-0.459 0.252,-0.431C0.218,-0.402 0.187,-0.363 0.16,-0.315Z" style="fill-rule:nonzero;"/>
                        </g>
                    </g>
                </g>
            </g>
        </g>
        <g transform="matrix(1,0,0,1,-8067.65,0)">
            <g transform="matrix(0.791228,0.00130023,-0.000526388,0.965759,-109.455,1052.97)">
                <rect x="11720.7" y="759.252" width="363.914" height="115.481" style="fill:rgb(255,203,0);"/>
                <clipPath id="_clip4">
                    <rect x="11720.7" y="759.252" width="363.914" height="115.481"/>
                </clipPath>
                <g clip-path="url(#_clip4)">
                    <g transform="matrix(1,-1.68519e-34,0,1,78.1133,-91.6456)">
                        <rect x="11642.6" y="850.898" width="363.914" height="115.481" style="fill:rgb(115,219,154);"/>
                        <path d="M12006.5,850.898L12006.5,966.379L11642.6,966.379L11642.6,850.898L12006.5,850.898ZM11645.2,964.222L12003.8,964.221L12003.8,853.055L11645.2,853.055L11645.2,964.222Z"/>
                    </g>
                    <g transform="matrix(0.739791,-0.000573615,0.000700143,0.606098,11149.2,345)">
                        <g transform="matrix(50,0,0,50,840.928,767.021)">
                            <path d="M0.434,-0.123C0.406,-0.077 0.373,-0.043 0.334,-0.02C0.295,0.004 0.26,0.015 0.227,0.015C0.181,0.015 0.141,-0.005 0.104,-0.044C0.068,-0.083 0.05,-0.143 0.05,-0.223C0.05,-0.286 0.062,-0.343 0.086,-0.392C0.11,-0.442 0.142,-0.481 0.183,-0.51C0.223,-0.539 0.273,-0.553 0.333,-0.553C0.35,-0.553 0.376,-0.551 0.411,-0.548C0.416,-0.547 0.424,-0.546 0.434,-0.545L0.525,-0.545L0.525,-0.16C0.525,-0.094 0.532,-0.041 0.546,0L0.451,0C0.444,-0.03 0.438,-0.071 0.434,-0.123ZM0.434,-0.23L0.434,-0.464C0.402,-0.473 0.372,-0.477 0.344,-0.477C0.288,-0.477 0.242,-0.455 0.204,-0.412C0.167,-0.369 0.148,-0.31 0.148,-0.235C0.148,-0.181 0.159,-0.141 0.179,-0.113C0.199,-0.086 0.222,-0.072 0.249,-0.072C0.277,-0.072 0.308,-0.086 0.342,-0.115C0.376,-0.143 0.407,-0.182 0.434,-0.23Z" style="fill-rule:nonzero;"/>
                        </g>
                        <g transform="matrix(50,0,0,50,870.933,767.021)">
                            <path d="M0.076,0L0.076,-0.545L0.167,-0.545L0.167,-0.426C0.193,-0.468 0.224,-0.501 0.261,-0.525C0.298,-0.549 0.334,-0.561 0.371,-0.561C0.403,-0.561 0.433,-0.552 0.459,-0.535C0.485,-0.518 0.504,-0.495 0.514,-0.468C0.525,-0.44 0.53,-0.386 0.53,-0.305L0.53,0L0.439,0L0.439,-0.316C0.439,-0.368 0.437,-0.403 0.432,-0.42C0.427,-0.436 0.418,-0.45 0.404,-0.461C0.391,-0.472 0.376,-0.477 0.36,-0.477C0.328,-0.477 0.294,-0.462 0.257,-0.432C0.22,-0.401 0.19,-0.363 0.167,-0.318L0.167,0L0.076,0Z" style="fill-rule:nonzero;"/>
                        </g>
                        <g transform="matrix(50,0,0,50,900.938,767.021)">
                            <path d="M0.434,-0.123C0.406,-0.077 0.373,-0.043 0.334,-0.02C0.295,0.004 0.26,0.015 0.227,0.015C0.181,0.015 0.141,-0.005 0.104,-0.044C0.068,-0.083 0.05,-0.143 0.05,-0.223C0.05,-0.286 0.062,-0.343 0.086,-0.392C0.11,-0.442 0.142,-0.481 0.183,-0.51C0.223,-0.539 0.273,-0.553 0.333,-0.553C0.35,-0.553 0.376,-0.551 0.411,-0.548C0.416,-0.547 0.424,-0.546 0.434,-0.545L0.525,-0.545L0.525,-0.16C0.525,-0.094 0.532,-0.041 0.546,0L0.451,0C0.444,-0.03 0.438,-0.071 0.434,-0.123ZM0.434,-0.23L0.434,-0.464C0.402,-0.473 0.372,-0.477 0.344,-0.477C0.288,-0.477 0.242,-0.455 0.204,-0.412C0.167,-0.369 0.148,-0.31 0.148,-0.235C0.148,-0.181 0.159,-0.141 0.179,-0.113C0.199,-0.086 0.222,-0.072 0.249,-0.072C0.277,-0.072 0.308,-0.086 0.342,-0.115C0.376,-0.143 0.407,-0.182 0.434,-0.23Z" style="fill-rule:nonzero;"/>
                        </g>
                        <g transform="matrix(50,0,0,50,930.943,767.021)">
                            <path d="M0.222,0L0.222,-0.712L0.059,-0.712L0.059,-0.788L0.313,-0.788L0.313,-0.076L0.483,-0.076L0.483,0L0.222,0Z" style="fill-rule:nonzero;"/>
                        </g>
                        <g transform="matrix(50,0,0,50,960.947,767.021)">
                            <path d="M0.276,-0.022L0.024,-0.545L0.125,-0.545L0.325,-0.136L0.493,-0.545L0.584,-0.545L0.373,-0.039C0.328,0.069 0.286,0.14 0.246,0.175C0.206,0.21 0.154,0.228 0.09,0.228C0.062,0.228 0.037,0.225 0.016,0.22L0.016,0.14C0.041,0.148 0.065,0.152 0.087,0.152C0.117,0.152 0.143,0.146 0.166,0.135C0.188,0.123 0.209,0.103 0.228,0.074C0.247,0.045 0.26,0.02 0.268,-0.001L0.276,-0.022Z" style="fill-rule:nonzero;"/>
                        </g>
                        <g transform="matrix(50,0,0,50,990.952,767.021)">
                            <path d="M0.065,0L0.065,-0.083L0.399,-0.47L0.073,-0.47L0.073,-0.545L0.52,-0.545L0.52,-0.47L0.183,-0.083L0.531,-0.083L0.531,0L0.065,0Z" style="fill-rule:nonzero;"/>
                        </g>
                        <g transform="matrix(50,0,0,50,1020.96,767.021)">
                            <path d="M0.529,-0.036C0.457,-0.002 0.388,0.016 0.323,0.016C0.274,0.016 0.23,0.003 0.191,-0.021C0.153,-0.045 0.122,-0.08 0.098,-0.126C0.075,-0.171 0.063,-0.22 0.063,-0.271C0.063,-0.321 0.075,-0.369 0.097,-0.415C0.119,-0.461 0.15,-0.497 0.189,-0.522C0.229,-0.548 0.273,-0.561 0.322,-0.561C0.387,-0.561 0.439,-0.537 0.478,-0.491C0.517,-0.445 0.537,-0.374 0.537,-0.277L0.537,-0.258L0.161,-0.258C0.161,-0.22 0.169,-0.186 0.185,-0.154C0.201,-0.123 0.221,-0.1 0.247,-0.084C0.273,-0.068 0.302,-0.061 0.335,-0.061C0.394,-0.061 0.458,-0.08 0.529,-0.119L0.529,-0.036ZM0.167,-0.326L0.438,-0.326L0.438,-0.339C0.438,-0.383 0.428,-0.419 0.406,-0.445C0.384,-0.472 0.355,-0.485 0.318,-0.485C0.282,-0.485 0.25,-0.471 0.223,-0.445C0.196,-0.418 0.177,-0.378 0.167,-0.326Z" style="fill-rule:nonzero;"/>
                        </g>
                        <g transform="matrix(50,0,0,50,1050.96,767.021)">
                            <path d="M0.3,0.023C0.278,0.023 0.259,0.015 0.244,0C0.228,-0.016 0.22,-0.035 0.22,-0.057C0.22,-0.079 0.228,-0.098 0.244,-0.113C0.26,-0.128 0.278,-0.136 0.3,-0.136C0.321,-0.136 0.34,-0.128 0.356,-0.113C0.372,-0.098 0.379,-0.079 0.379,-0.057C0.379,-0.035 0.372,-0.016 0.356,0C0.34,0.015 0.322,0.023 0.3,0.023Z" style="fill-rule:nonzero;"/>
                        </g>
                        <g transform="matrix(50,0,0,50,1080.97,767.021)">
                            <path d="M0.535,-0.016C0.474,0.005 0.416,0.015 0.361,0.015C0.306,0.015 0.258,0.003 0.215,-0.023C0.173,-0.048 0.139,-0.082 0.116,-0.125C0.092,-0.168 0.08,-0.217 0.08,-0.272C0.08,-0.355 0.107,-0.424 0.161,-0.479C0.215,-0.533 0.28,-0.561 0.356,-0.561C0.412,-0.561 0.472,-0.55 0.535,-0.529L0.535,-0.441C0.471,-0.47 0.414,-0.485 0.364,-0.485C0.331,-0.485 0.3,-0.477 0.271,-0.46C0.241,-0.444 0.219,-0.418 0.203,-0.383C0.187,-0.348 0.179,-0.313 0.179,-0.276C0.179,-0.227 0.194,-0.18 0.225,-0.135C0.256,-0.091 0.304,-0.068 0.37,-0.068C0.389,-0.068 0.409,-0.07 0.428,-0.073C0.447,-0.075 0.483,-0.085 0.535,-0.103L0.535,-0.016Z" style="fill-rule:nonzero;"/>
                        </g>
                        <g transform="matrix(50,0,0,50,1110.97,767.021)">
                            <path d="M0.16,-0.423C0.188,-0.468 0.221,-0.503 0.26,-0.526C0.299,-0.549 0.334,-0.561 0.367,-0.561C0.412,-0.561 0.453,-0.541 0.49,-0.501C0.526,-0.462 0.544,-0.402 0.544,-0.322C0.544,-0.259 0.532,-0.203 0.508,-0.153C0.484,-0.103 0.451,-0.064 0.411,-0.035C0.371,-0.007 0.321,0.008 0.261,0.008C0.244,0.008 0.218,0.006 0.183,0.002C0.178,0.002 0.17,0.001 0.16,0L0.16,0.212L0.069,0.212L0.069,-0.545L0.16,-0.545L0.16,-0.423ZM0.16,-0.315L0.16,-0.081C0.193,-0.073 0.223,-0.068 0.25,-0.068C0.306,-0.068 0.352,-0.09 0.389,-0.133C0.427,-0.176 0.446,-0.235 0.446,-0.31C0.446,-0.364 0.436,-0.405 0.415,-0.433C0.395,-0.46 0.371,-0.474 0.345,-0.474C0.317,-0.474 0.286,-0.459 0.252,-0.431C0.218,-0.402 0.187,-0.363 0.16,-0.315Z" style="fill-rule:nonzero;"/>
                        </g>
                        <g transform="matrix(50,0,0,50,1140.98,767.021)">
                            <path d="M0.16,-0.423C0.188,-0.468 0.221,-0.503 0.26,-0.526C0.299,-0.549 0.334,-0.561 0.367,-0.561C0.412,-0.561 0.453,-0.541 0.49,-0.501C0.526,-0.462 0.544,-0.402 0.544,-0.322C0.544,-0.259 0.532,-0.203 0.508,-0.153C0.484,-0.103 0.451,-0.064 0.411,-0.035C0.371,-0.007 0.321,0.008 0.261,0.008C0.244,0.008 0.218,0.006 0.183,0.002C0.178,0.002 0.17,0.001 0.16,0L0.16,0.212L0.069,0.212L0.069,-0.545L0.16,-0.545L0.16,-0.423ZM0.16,-0.315L0.16,-0.081C0.193,-0.073 0.223,-0.068 0.25,-0.068C0.306,-0.068 0.352,-0.09 0.389,-0.133C0.427,-0.176 0.446,-0.235 0.446,-0.31C0.446,-0.364 0.436,-0.405 0.415,-0.433C0.395,-0.46 0.371,-0.474 0.345,-0.474C0.317,-0.474 0.286,-0.459 0.252,-0.431C0.218,-0.402 0.187,-0.363 0.16,-0.315Z" style="fill-rule:nonzero;"/>
                        </g>
                        <g transform="matrix(50,0,0,50,915.94,821.196)">
                            <path d="M0.229,0L0.229,-0.47L0.077,-0.47L0.077,-0.545L0.319,-0.545L0.319,-0.076L0.471,-0.076L0.471,0L0.229,0ZM0.213,-0.742C0.213,-0.763 0.22,-0.778 0.234,-0.788C0.248,-0.798 0.262,-0.803 0.274,-0.803C0.287,-0.803 0.3,-0.798 0.314,-0.788C0.328,-0.778 0.335,-0.763 0.335,-0.742C0.335,-0.722 0.328,-0.707 0.314,-0.697C0.3,-0.687 0.287,-0.682 0.274,-0.682C0.262,-0.682 0.248,-0.687 0.234,-0.697C0.22,-0.707 0.213,-0.722 0.213,-0.742Z" style="fill-rule:nonzero;"/>
                        </g>
                        <g transform="matrix(50,0,0,50,945.945,821.196)">
                            <path d="M0.122,0L0.122,-0.545L0.213,-0.545L0.213,-0.426C0.241,-0.471 0.274,-0.505 0.31,-0.527C0.347,-0.549 0.388,-0.561 0.433,-0.561C0.465,-0.561 0.498,-0.556 0.531,-0.545L0.531,-0.349L0.444,-0.349L0.444,-0.473C0.429,-0.476 0.417,-0.477 0.408,-0.477C0.374,-0.477 0.341,-0.464 0.308,-0.437C0.276,-0.41 0.244,-0.37 0.213,-0.317L0.213,0L0.122,0Z" style="fill-rule:nonzero;"/>
                        </g>
                        <g transform="matrix(50,0,0,50,975.95,821.196)">
                            <path d="M0.3,0.023C0.278,0.023 0.259,0.015 0.244,0C0.228,-0.016 0.22,-0.035 0.22,-0.057C0.22,-0.079 0.228,-0.098 0.244,-0.113C0.26,-0.128 0.278,-0.136 0.3,-0.136C0.321,-0.136 0.34,-0.128 0.356,-0.113C0.372,-0.098 0.379,-0.079 0.379,-0.057C0.379,-0.035 0.372,-0.016 0.356,0C0.34,0.015 0.322,0.023 0.3,0.023Z" style="fill-rule:nonzero;"/>
                        </g>
                        <g transform="matrix(50,0,0,50,1005.95,821.196)">
                            <path d="M0.535,-0.016C0.474,0.005 0.416,0.015 0.361,0.015C0.306,0.015 0.258,0.003 0.215,-0.023C0.173,-0.048 0.139,-0.082 0.116,-0.125C0.092,-0.168 0.08,-0.217 0.08,-0.272C0.08,-0.355 0.107,-0.424 0.161,-0.479C0.215,-0.533 0.28,-0.561 0.356,-0.561C0.412,-0.561 0.472,-0.55 0.535,-0.529L0.535,-0.441C0.471,-0.47 0.414,-0.485 0.364,-0.485C0.331,-0.485 0.3,-0.477 0.271,-0.46C0.241,-0.444 0.219,-0.418 0.203,-0.383C0.187,-0.348 0.179,-0.313 0.179,-0.276C0.179,-0.227 0.194,-0.18 0.225,-0.135C0.256,-0.091 0.304,-0.068 0.37,-0.068C0.389,-0.068 0.409,-0.07 0.428,-0.073C0.447,-0.075 0.483,-0.085 0.535,-0.103L0.535,-0.016Z" style="fill-rule:nonzero;"/>
                        </g>
                        <g transform="matrix(50,0,0,50,1035.96,821.196)">
                            <path d="M0.16,-0.423C0.188,-0.468 0.221,-0.503 0.26,-0.526C0.299,-0.549 0.334,-0.561 0.367,-0.561C0.412,-0.561 0.453,-0.541 0.49,-0.501C0.526,-0.462 0.544,-0.402 0.544,-0.322C0.544,-0.259 0.532,-0.203 0.508,-0.153C0.484,-0.103 0.451,-0.064 0.411,-0.035C0.371,-0.007 0.321,0.008 0.261,0.008C0.244,0.008 0.218,0.006 0.183,0.002C0.178,0.002 0.17,0.001 0.16,0L0.16,0.212L0.069,0.212L0.069,-0.545L0.16,-0.545L0.16,-0.423ZM0.16,-0.315L0.16,-0.081C0.193,-0.073 0.223,-0.068 0.25,-0.068C0.306,-0.068 0.352,-0.09 0.389,-0.133C0.427,-0.176 0.446,-0.235 0.446,-0.31C0.446,-0.364 0.436,-0.405 0.415,-0.433C0.395,-0.46 0.371,-0.474 0.345,-0.474C0.317,-0.474 0.286,-0.459 0.252,-0.431C0.218,-0.402 0.187,-0.363 0.16,-0.315Z" style="fill-rule:nonzero;"/>
                        </g>
                        <g transform="matrix(50,0,0,50,1065.96,821.196)">
                            <path d="M0.16,-0.423C0.188,-0.468 0.221,-0.503 0.26,-0.526C0.299,-0.549 0.334,-0.561 0.367,-0.561C0.412,-0.561 0.453,-0.541 0.49,-0.501C0.526,-0.462 0.544,-0.402 0.544,-0.322C0.544,-0.259 0.532,-0.203 0.508,-0.153C0.484,-0.103 0.451,-0.064 0.411,-0.035C0.371,-0.007 0.321,0.008 0.261,0.008C0.244,0.008 0.218,0.006 0.183,0.002C0.178,0.002 0.17,0.001 0.16,0L0.16,0.212L0.069,0.212L0.069,-0.545L0.16,-0.545L0.16,-0.423ZM0.16,-0.315L0.16,-0.081C0.193,-0.073 0.223,-0.068 0.25,-0.068C0.306,-0.068 0.352,-0.09 0.389,-0.133C0.427,-0.176 0.446,-0.235 0.446,-0.31C0.446,-0.364 0.436,-0.405 0.415,-0.433C0.395,-0.46 0.371,-0.474 0.345,-0.474C0.317,-0.474 0.286,-0.459 0.252,-0.431C0.218,-0.402 0.187,-0.363 0.16,-0.315Z" style="fill-rule:nonzero;"/>
                        </g>
                    </g>
                </g>
            </g>
        </g>
        <g transform="matrix(1,0,0,1,-8067.65,0)">
            <g transform="matrix(0.790894,0.00067506,-0.000526166,0.501408,650.331,1412.86)">
                <rect x="11720.7" y="759.252" width="363.914" height="115.481" style="fill:rgb(255,203,0);"/>
                <clipPath id="_clip5">
                    <rect x="11720.7" y="759.252" width="363.914" height="115.481"/>
                </clipPath>
                <g clip-path="url(#_clip5)">
                    <g transform="matrix(1,-1.68519e-34,0,1,78.1133,-91.6456)">
                        <rect x="11642.6" y="850.898" width="363.914" height="115.481" style="fill:rgb(115,219,154);"/>
                        <path d="M12006.5,850.898L12006.5,966.379L11642.6,966.379L11642.6,850.898L12006.5,850.898ZM11645.2,962.224L12003.8,962.224L12003.8,855.053L11645.2,855.053L11645.2,962.224Z"/>
                    </g>
                    <g transform="matrix(0.740104,-0.00110484,0.00070044,1.1674,11157.1,-60.4587)">
                        <g transform="matrix(50,0,0,50,840.928,767.021)">
                            <path d="M0.535,-0.016C0.474,0.005 0.416,0.015 0.361,0.015C0.306,0.015 0.258,0.003 0.215,-0.023C0.173,-0.048 0.139,-0.082 0.116,-0.125C0.092,-0.168 0.08,-0.217 0.08,-0.272C0.08,-0.355 0.107,-0.424 0.161,-0.479C0.215,-0.533 0.28,-0.561 0.356,-0.561C0.412,-0.561 0.472,-0.55 0.535,-0.529L0.535,-0.441C0.471,-0.47 0.414,-0.485 0.364,-0.485C0.331,-0.485 0.3,-0.477 0.271,-0.46C0.241,-0.444 0.219,-0.418 0.203,-0.383C0.187,-0.348 0.179,-0.313 0.179,-0.276C0.179,-0.227 0.194,-0.18 0.225,-0.135C0.256,-0.091 0.304,-0.068 0.37,-0.068C0.389,-0.068 0.409,-0.07 0.428,-0.073C0.447,-0.075 0.483,-0.085 0.535,-0.103L0.535,-0.016Z" style="fill-rule:nonzero;"/>
                        </g>
                        <g transform="matrix(50,0,0,50,870.933,767.021)">
                            <path d="M0.3,0.015C0.222,0.015 0.16,-0.012 0.113,-0.067C0.066,-0.121 0.042,-0.19 0.042,-0.273C0.042,-0.356 0.066,-0.425 0.113,-0.479C0.16,-0.533 0.222,-0.561 0.3,-0.561C0.378,-0.561 0.44,-0.533 0.487,-0.479C0.534,-0.425 0.558,-0.356 0.558,-0.273C0.558,-0.19 0.534,-0.121 0.487,-0.067C0.44,-0.012 0.378,0.015 0.3,0.015ZM0.3,-0.061C0.349,-0.061 0.387,-0.079 0.416,-0.117C0.445,-0.155 0.459,-0.207 0.459,-0.273C0.459,-0.339 0.445,-0.39 0.416,-0.428C0.387,-0.466 0.349,-0.485 0.3,-0.485C0.251,-0.485 0.213,-0.466 0.184,-0.428C0.155,-0.39 0.141,-0.339 0.141,-0.273C0.141,-0.207 0.155,-0.155 0.184,-0.117C0.213,-0.079 0.251,-0.061 0.3,-0.061Z" style="fill-rule:nonzero;"/>
                        </g>
                        <g transform="matrix(50,0,0,50,900.938,767.021)">
                            <path d="M0.44,-0.123C0.412,-0.077 0.379,-0.043 0.34,-0.02C0.301,0.004 0.265,0.015 0.233,0.015C0.187,0.015 0.146,-0.005 0.11,-0.044C0.074,-0.083 0.056,-0.143 0.056,-0.223C0.056,-0.286 0.068,-0.343 0.092,-0.392C0.116,-0.442 0.148,-0.481 0.188,-0.51C0.229,-0.539 0.279,-0.553 0.338,-0.553C0.356,-0.553 0.382,-0.551 0.417,-0.548C0.422,-0.547 0.43,-0.546 0.44,-0.545L0.44,-0.788L0.531,-0.788L0.531,0L0.44,0L0.44,-0.123ZM0.44,-0.23L0.44,-0.464C0.408,-0.473 0.378,-0.477 0.35,-0.477C0.294,-0.477 0.247,-0.455 0.21,-0.412C0.173,-0.369 0.154,-0.31 0.154,-0.235C0.154,-0.181 0.164,-0.141 0.185,-0.113C0.205,-0.086 0.228,-0.072 0.254,-0.072C0.283,-0.072 0.314,-0.086 0.348,-0.115C0.382,-0.143 0.413,-0.182 0.44,-0.23Z" style="fill-rule:nonzero;"/>
                        </g>
                        <g transform="matrix(50,0,0,50,930.943,767.021)">
                            <path d="M0.529,-0.036C0.457,-0.002 0.388,0.016 0.323,0.016C0.274,0.016 0.23,0.003 0.191,-0.021C0.153,-0.045 0.122,-0.08 0.098,-0.126C0.075,-0.171 0.063,-0.22 0.063,-0.271C0.063,-0.321 0.075,-0.369 0.097,-0.415C0.119,-0.461 0.15,-0.497 0.189,-0.522C0.229,-0.548 0.273,-0.561 0.322,-0.561C0.387,-0.561 0.439,-0.537 0.478,-0.491C0.517,-0.445 0.537,-0.374 0.537,-0.277L0.537,-0.258L0.161,-0.258C0.161,-0.22 0.169,-0.186 0.185,-0.154C0.201,-0.123 0.221,-0.1 0.247,-0.084C0.273,-0.068 0.302,-0.061 0.335,-0.061C0.394,-0.061 0.458,-0.08 0.529,-0.119L0.529,-0.036ZM0.167,-0.326L0.438,-0.326L0.438,-0.339C0.438,-0.383 0.428,-0.419 0.406,-0.445C0.384,-0.472 0.355,-0.485 0.318,-0.485C0.282,-0.485 0.25,-0.471 0.223,-0.445C0.196,-0.418 0.177,-0.378 0.167,-0.326Z" style="fill-rule:nonzero;"/>
                        </g>
                        <g transform="matrix(50,0,0,50,960.947,767.021)">
                            <path d="M0.44,-0.123C0.412,-0.077 0.379,-0.043 0.34,-0.02C0.301,0.004 0.265,0.015 0.233,0.015C0.187,0.015 0.146,-0.005 0.11,-0.044C0.074,-0.083 0.056,-0.143 0.056,-0.223C0.056,-0.286 0.068,-0.343 0.092,-0.392C0.116,-0.442 0.148,-0.481 0.188,-0.51C0.229,-0.539 0.279,-0.553 0.338,-0.553C0.356,-0.553 0.382,-0.551 0.417,-0.548C0.422,-0.547 0.43,-0.546 0.44,-0.545L0.531,-0.545L0.531,-0.16C0.531,-0.068 0.53,-0.012 0.528,0.009C0.525,0.029 0.521,0.049 0.516,0.07C0.503,0.119 0.473,0.157 0.427,0.185C0.38,0.213 0.324,0.227 0.258,0.227C0.192,0.227 0.125,0.21 0.058,0.176L0.058,0.084C0.083,0.102 0.115,0.118 0.153,0.131C0.19,0.145 0.227,0.151 0.262,0.151C0.289,0.151 0.316,0.147 0.34,0.138C0.365,0.129 0.385,0.117 0.4,0.1C0.416,0.083 0.426,0.064 0.432,0.042C0.437,0.02 0.44,-0.009 0.44,-0.045L0.44,-0.123ZM0.44,-0.23L0.44,-0.464C0.408,-0.473 0.378,-0.477 0.35,-0.477C0.294,-0.477 0.247,-0.455 0.21,-0.412C0.173,-0.369 0.154,-0.31 0.154,-0.235C0.154,-0.181 0.164,-0.141 0.185,-0.113C0.205,-0.086 0.228,-0.072 0.254,-0.072C0.283,-0.072 0.314,-0.086 0.348,-0.115C0.382,-0.143 0.413,-0.182 0.44,-0.23Z" style="fill-rule:nonzero;"/>
                        </g>
                        <g transform="matrix(50,0,0,50,990.952,767.021)">
                            <path d="M0.529,-0.036C0.457,-0.002 0.388,0.016 0.323,0.016C0.274,0.016 0.23,0.003 0.191,-0.021C0.153,-0.045 0.122,-0.08 0.098,-0.126C0.075,-0.171 0.063,-0.22 0.063,-0.271C0.063,-0.321 0.075,-0.369 0.097,-0.415C0.119,-0.461 0.15,-0.497 0.189,-0.522C0.229,-0.548 0.273,-0.561 0.322,-0.561C0.387,-0.561 0.439,-0.537 0.478,-0.491C0.517,-0.445 0.537,-0.374 0.537,-0.277L0.537,-0.258L0.161,-0.258C0.161,-0.22 0.169,-0.186 0.185,-0.154C0.201,-0.123 0.221,-0.1 0.247,-0.084C0.273,-0.068 0.302,-0.061 0.335,-0.061C0.394,-0.061 0.458,-0.08 0.529,-0.119L0.529,-0.036ZM0.167,-0.326L0.438,-0.326L0.438,-0.339C0.438,-0.383 0.428,-0.419 0.406,-0.445C0.384,-0.472 0.355,-0.485 0.318,-0.485C0.282,-0.485 0.25,-0.471 0.223,-0.445C0.196,-0.418 0.177,-0.378 0.167,-0.326Z" style="fill-rule:nonzero;"/>
                        </g>
                        <g transform="matrix(50,0,0,50,1020.96,767.021)">
                            <path d="M0.076,0L0.076,-0.545L0.167,-0.545L0.167,-0.426C0.193,-0.468 0.224,-0.501 0.261,-0.525C0.298,-0.549 0.334,-0.561 0.371,-0.561C0.403,-0.561 0.433,-0.552 0.459,-0.535C0.485,-0.518 0.504,-0.495 0.514,-0.468C0.525,-0.44 0.53,-0.386 0.53,-0.305L0.53,0L0.439,0L0.439,-0.316C0.439,-0.368 0.437,-0.403 0.432,-0.42C0.427,-0.436 0.418,-0.45 0.404,-0.461C0.391,-0.472 0.376,-0.477 0.36,-0.477C0.328,-0.477 0.294,-0.462 0.257,-0.432C0.22,-0.401 0.19,-0.363 0.167,-0.318L0.167,0L0.076,0Z" style="fill-rule:nonzero;"/>
                        </g>
                        <g transform="matrix(50,0,0,50,1050.96,767.021)">
                            <path d="M0.3,0.023C0.278,0.023 0.259,0.015 0.244,0C0.228,-0.016 0.22,-0.035 0.22,-0.057C0.22,-0.079 0.228,-0.098 0.244,-0.113C0.26,-0.128 0.278,-0.136 0.3,-0.136C0.321,-0.136 0.34,-0.128 0.356,-0.113C0.372,-0.098 0.379,-0.079 0.379,-0.057C0.379,-0.035 0.372,-0.016 0.356,0C0.34,0.015 0.322,0.023 0.3,0.023Z" style="fill-rule:nonzero;"/>
                        </g>
                        <g transform="matrix(50,0,0,50,1080.97,767.021)">
                            <path d="M0.535,-0.016C0.474,0.005 0.416,0.015 0.361,0.015C0.306,0.015 0.258,0.003 0.215,-0.023C0.173,-0.048 0.139,-0.082 0.116,-0.125C0.092,-0.168 0.08,-0.217 0.08,-0.272C0.08,-0.355 0.107,-0.424 0.161,-0.479C0.215,-0.533 0.28,-0.561 0.356,-0.561C0.412,-0.561 0.472,-0.55 0.535,-0.529L0.535,-0.441C0.471,-0.47 0.414,-0.485 0.364,-0.485C0.331,-0.485 0.3,-0.477 0.271,-0.46C0.241,-0.444 0.219,-0.418 0.203,-0.383C0.187,-0.348 0.179,-0.313 0.179,-0.276C0.179,-0.227 0.194,-0.18 0.225,-0.135C0.256,-0.091 0.304,-0.068 0.37,-0.068C0.389,-0.068 0.409,-0.07 0.428,-0.073C0.447,-0.075 0.483,-0.085 0.535,-0.103L0.535,-0.016Z" style="fill-rule:nonzero;"/>
                        </g>
                        <g transform="matrix(50,0,0,50,1110.97,767.021)">
                            <path d="M0.16,-0.423C0.188,-0.468 0.221,-0.503 0.26,-0.526C0.299,-0.549 0.334,-0.561 0.367,-0.561C0.412,-0.561 0.453,-0.541 0.49,-0.501C0.526,-0.462 0.544,-0.402 0.544,-0.322C0.544,-0.259 0.532,-0.203 0.508,-0.153C0.484,-0.103 0.451,-0.064 0.411,-0.035C0.371,-0.007 0.321,0.008 0.261,0.008C0.244,0.008 0.218,0.006 0.183,0.002C0.178,0.002 0.17,0.001 0.16,0L0.16,0.212L0.069,0.212L0.069,-0.545L0.16,-0.545L0.16,-0.423ZM0.16,-0.315L0.16,-0.081C0.193,-0.073 0.223,-0.068 0.25,-0.068C0.306,-0.068 0.352,-0.09 0.389,-0.133C0.427,-0.176 0.446,-0.235 0.446,-0.31C0.446,-0.364 0.436,-0.405 0.415,-0.433C0.395,-0.46 0.371,-0.474 0.345,-0.474C0.317,-0.474 0.286,-0.459 0.252,-0.431C0.218,-0.402 0.187,-0.363 0.16,-0.315Z" style="fill-rule:nonzero;"/>
                        </g>
                        <g transform="matrix(50,0,0,50,1140.98,767.021)">
                            <path d="M0.16,-0.423C0.188,-0.468 0.221,-0.503 0.26,-0.526C0.299,-0.549 0.334,-0.561 0.367,-0.561C0.412,-0.561 0.453,-0.541 0.49,-0.501C0.526,-0.462 0.544,-0.402 0.544,-0.322C0.544,-0.259 0.532,-0.203 0.508,-0.153C0.484,-0.103 0.451,-0.064 0.411,-0.035C0.371,-0.007 0.321,0.008 0.261,0.008C0.244,0.008 0.218,0.006 0.183,0.002C0.178,0.002 0.17,0.001 0.16,0L0.16,0.212L0.069,0.212L0.069,-0.545L0.16,-0.545L0.16,-0.423ZM0.16,-0.315L0.16,-0.081C0.193,-0.073 0.223,-0.068 0.25,-0.068C0.306,-0.068 0.352,-0.09 0.389,-0.133C0.427,-0.176 0.446,-0.235 0.446,-0.31C0.446,-0.364 0.436,-0.405 0.415,-0.433C0.395,-0.46 0.371,-0.474 0.345,-0.474C0.317,-0.474 0.286,-0.459 0.252,-0.431C0.218,-0.402 0.187,-0.363 0.16,-0.315Z" style="fill-rule:nonzero;"/>
                        </g>
                    </g>
                </g>
            </g>
        </g>
        <g transform="matrix(1,0,0,1,-8067.65,0)">
            <g transform="matrix(0.791228,0.00067506,-0.000526388,0.501408,268.403,1412.86)">
                <rect x="11720.7" y="759.252" width="363.914" height="115.481" style="fill:rgb(255,203,0);"/>
                <clipPath id="_clip6">
                    <rect x="11720.7" y="759.252" width="363.914" height="115.481"/>
                </clipPath>
                <g clip-path="url(#_clip6)">
                    <g transform="matrix(1,-1.68519e-34,0,1,78.1133,-91.6456)">
                        <rect x="11642.6" y="850.898" width="363.914" height="115.481" style="fill:rgb(115,219,154);"/>
                        <path d="M12006.5,850.898L12006.5,966.379L11642.6,966.379L11642.6,850.898L12006.5,850.898ZM11645.2,962.224L12003.8,962.224L12003.8,855.053L11645.2,855.053L11645.2,962.224Z"/>
                    </g>
                    <g transform="matrix(0.739792,-0.00110484,0.000700144,1.1674,11157.5,-60.0615)">
                        <g transform="matrix(50,0,0,50,915.94,767.021)">
                            <path d="M0.229,0L0.229,-0.47L0.077,-0.47L0.077,-0.545L0.319,-0.545L0.319,-0.076L0.471,-0.076L0.471,0L0.229,0ZM0.213,-0.742C0.213,-0.763 0.22,-0.778 0.234,-0.788C0.248,-0.798 0.262,-0.803 0.274,-0.803C0.287,-0.803 0.3,-0.798 0.314,-0.788C0.328,-0.778 0.335,-0.763 0.335,-0.742C0.335,-0.722 0.328,-0.707 0.314,-0.697C0.3,-0.687 0.287,-0.682 0.274,-0.682C0.262,-0.682 0.248,-0.687 0.234,-0.697C0.22,-0.707 0.213,-0.722 0.213,-0.742Z" style="fill-rule:nonzero;"/>
                        </g>
                        <g transform="matrix(50,0,0,50,945.945,767.021)">
                            <path d="M0.122,0L0.122,-0.545L0.213,-0.545L0.213,-0.426C0.241,-0.471 0.274,-0.505 0.31,-0.527C0.347,-0.549 0.388,-0.561 0.433,-0.561C0.465,-0.561 0.498,-0.556 0.531,-0.545L0.531,-0.349L0.444,-0.349L0.444,-0.473C0.429,-0.476 0.417,-0.477 0.408,-0.477C0.374,-0.477 0.341,-0.464 0.308,-0.437C0.276,-0.41 0.244,-0.37 0.213,-0.317L0.213,0L0.122,0Z" style="fill-rule:nonzero;"/>
                        </g>
                        <g transform="matrix(50,0,0,50,975.95,767.021)">
                            <path d="M0.3,0.023C0.278,0.023 0.259,0.015 0.244,0C0.228,-0.016 0.22,-0.035 0.22,-0.057C0.22,-0.079 0.228,-0.098 0.244,-0.113C0.26,-0.128 0.278,-0.136 0.3,-0.136C0.321,-0.136 0.34,-0.128 0.356,-0.113C0.372,-0.098 0.379,-0.079 0.379,-0.057C0.379,-0.035 0.372,-0.016 0.356,0C0.34,0.015 0.322,0.023 0.3,0.023Z" style="fill-rule:nonzero;"/>
                        </g>
                        <g transform="matrix(50,0,0,50,1005.95,767.021)">
                            <path d="M0.535,-0.016C0.474,0.005 0.416,0.015 0.361,0.015C0.306,0.015 0.258,0.003 0.215,-0.023C0.173,-0.048 0.139,-0.082 0.116,-0.125C0.092,-0.168 0.08,-0.217 0.08,-0.272C0.08,-0.355 0.107,-0.424 0.161,-0.479C0.215,-0.533 0.28,-0.561 0.356,-0.561C0.412,-0.561 0.472,-0.55 0.535,-0.529L0.535,-0.441C0.471,-0.47 0.414,-0.485 0.364,-0.485C0.331,-0.485 0.3,-0.477 0.271,-0.46C0.241,-0.444 0.219,-0.418 0.203,-0.383C0.187,-0.348 0.179,-0.313 0.179,-0.276C0.179,-0.227 0.194,-0.18 0.225,-0.135C0.256,-0.091 0.304,-0.068 0.37,-0.068C0.389,-0.068 0.409,-0.07 0.428,-0.073C0.447,-0.075 0.483,-0.085 0.535,-0.103L0.535,-0.016Z" style="fill-rule:nonzero;"/>
                        </g>
                        <g transform="matrix(50,0,0,50,1035.96,767.021)">
                            <path d="M0.16,-0.423C0.188,-0.468 0.221,-0.503 0.26,-0.526C0.299,-0.549 0.334,-0.561 0.367,-0.561C0.412,-0.561 0.453,-0.541 0.49,-0.501C0.526,-0.462 0.544,-0.402 0.544,-0.322C0.544,-0.259 0.532,-0.203 0.508,-0.153C0.484,-0.103 0.451,-0.064 0.411,-0.035C0.371,-0.007 0.321,0.008 0.261,0.008C0.244,0.008 0.218,0.006 0.183,0.002C0.178,0.002 0.17,0.001 0.16,0L0.16,0.212L0.069,0.212L0.069,-0.545L0.16,-0.545L0.16,-0.423ZM0.16,-0.315L0.16,-0.081C0.193,-0.073 0.223,-0.068 0.25,-0.068C0.306,-0.068 0.352,-0.09 0.389,-0.133C0.427,-0.176 0.446,-0.235 0.446,-0.31C0.446,-0.364 0.436,-0.405 0.415,-0.433C0.395,-0.46 0.371,-0.474 0.345,-0.474C0.317,-0.474 0.286,-0.459 0.252,-0.431C0.218,-0.402 0.187,-0.363 0.16,-0.315Z" style="fill-rule:nonzero;"/>
                        </g>
                        <g transform="matrix(50,0,0,50,1065.96,767.021)">
                            <path d="M0.16,-0.423C0.188,-0.468 0.221,-0.503 0.26,-0.526C0.299,-0.549 0.334,-0.561 0.367,-0.561C0.412,-0.561 0.453,-0.541 0.49,-0.501C0.526,-0.462 0.544,-0.402 0.544,-0.322C0.544,-0.259 0.532,-0.203 0.508,-0.153C0.484,-0.103 0.451,-0.064 0.411,-0.035C0.371,-0.007 0.321,0.008 0.261,0.008C0.244,0.008 0.218,0.006 0.183,0.002C0.178,0.002 0.17,0.001 0.16,0L0.16,0.212L0.069,0.212L0.069,-0.545L0.16,-0.545L0.16,-0.423ZM0.16,-0.315L0.16,-0.081C0.193,-0.073 0.223,-0.068 0.25,-0.068C0.306,-0.068 0.352,-0.09 0.389,-0.133C0.427,-0.176 0.446,-0.235 0.446,-0.31C0.446,-0.364 0.436,-0.405 0.415,-0.433C0.395,-0.46 0.371,-0.474 0.345,-0.474C0.317,-0.474 0.286,-0.459 0.252,-0.431C0.218,-0.402 0.187,-0.363 0.16,-0.315Z" style="fill-rule:nonzero;"/>
                        </g>
                    </g>
                </g>
            </g>
        </g>
        <g transform="matrix(1,0,0,1,-8067.65,0)">
            <g transform="matrix(0.713288,0.00067506,-0.0006666,0.704348,1763.24,1059.08)">
                <rect x="11720.7" y="759.252" width="363.914" height="115.481" style="fill:none;"/>
                <clipPath id="_clip7">
                    <rect x="11720.7" y="759.252" width="363.914" height="115.481"/>
                </clipPath>
                <g clip-path="url(#_clip7)">
                    <g transform="matrix(1,1.68519e-34,-1.92593e-34,1,78.1133,-91.6456)">
                        <rect x="11642.6" y="850.898" width="363.914" height="115.481" style="fill:rgb(255,203,0);"/>
                        <path d="M12006.5,850.898L12006.5,966.379L11642.6,966.379L11642.6,850.898L12006.5,850.898ZM11645.5,963.421L12003.5,963.421L12003.5,853.855L11645.5,853.855L11645.5,963.421Z"/>
                    </g>
                    <g transform="matrix(1.40196,-0.00134366,0.00132682,1.41975,10491.3,-246.216)">
                        <g transform="matrix(50,0,0,50,910.227,767.021)">
                            <path d="M0.093,0L0.093,-0.723L0.196,-0.723L0.196,-0.077L0.521,-0.077L0.521,0L0.093,0Z" style="fill-rule:nonzero;"/>
                        </g>
                        <g transform="matrix(50,0,0,50,936.887,767.021)">
                            <path d="M0.093,0L0.093,-0.723L0.196,-0.723L0.196,-0.077L0.521,-0.077L0.521,0L0.093,0Z" style="fill-rule:nonzero;"/>
                        </g>
                        <g transform="matrix(50,0,0,50,963.548,767.021)">
                            <path d="M0.291,0L0.018,-0.723L0.12,-0.723L0.344,-0.131L0.56,-0.723L0.649,-0.723L0.387,0L0.291,0Z" style="fill-rule:nonzero;"/>
                        </g>
                        <g transform="matrix(50,0,0,50,996.238,767.021)">
                            <path d="M0.093,0L0.093,-0.723L0.235,-0.723L0.436,-0.164L0.642,-0.723L0.769,-0.723L0.769,0L0.673,0L0.673,-0.588L0.474,-0.048L0.375,-0.048L0.181,-0.589L0.181,0L0.093,0Z" style="fill-rule:nonzero;"/>
                        </g>
                        <g transform="matrix(50,0,0,50,1039.3,767.021)">
                            <rect x="0.039" y="-0.264" width="0.249" height="0.046" style="fill-rule:nonzero;"/>
                        </g>
                        <g transform="matrix(50,0,0,50,1055.66,767.021)">
                            <rect x="0.093" y="-0.723" width="0.103" height="0.723" style="fill-rule:nonzero;"/>
                        </g>
                        <g transform="matrix(50,0,0,50,1070.07,767.021)">
                            <path d="M0.093,0L0.093,-0.723L0.312,-0.723C0.381,-0.723 0.434,-0.707 0.471,-0.677C0.508,-0.646 0.527,-0.602 0.527,-0.543C0.527,-0.447 0.478,-0.379 0.381,-0.338L0.622,0L0.496,0L0.291,-0.306L0.195,-0.306L0.195,0L0.093,0ZM0.195,-0.382L0.228,-0.382C0.357,-0.382 0.421,-0.433 0.421,-0.534C0.421,-0.609 0.367,-0.646 0.259,-0.646L0.195,-0.646L0.195,-0.382Z" style="fill-rule:nonzero;"/>
                        </g>
                    </g>
                </g>
            </g>
        </g>
        <g transform="matrix(1,0,0,1,-8067.65,0)">
            <g transform="matrix(0.713288,0.00067506,-0.0006666,0.704348,1385.09,1059.08)">
                <rect x="11720.7" y="759.252" width="363.914" height="115.481" style="fill:none;"/>
                <clipPath id="_clip8">
                    <rect x="11720.7" y="759.252" width="363.914" height="115.481"/>
                </clipPath>
                <g clip-path="url(#_clip8)">
                    <g transform="matrix(1,1.68519e-34,-1.92593e-34,1,78.1133,-91.6456)">
                        <rect x="11642.6" y="850.898" width="363.914" height="115.481" style="fill:rgb(255,203,0);"/>
                        <path d="M12006.5,850.898L12006.5,966.379L11642.6,966.379L11642.6,850.898L12006.5,850.898ZM11645.5,963.421L12003.5,963.421L12003.5,853.855L11645.5,853.855L11645.5,963.421Z"/>
                    </g>
                    <g transform="matrix(1.40196,-0.00134366,0.00132682,1.41975,10491.3,-246.216)">
                        <g transform="matrix(50,0,0,50,964.878,767.021)">
                            <path d="M0.636,-0.02C0.549,0.006 0.472,0.018 0.407,0.018C0.292,0.018 0.204,-0.015 0.143,-0.08C0.081,-0.146 0.051,-0.239 0.051,-0.361C0.051,-0.481 0.082,-0.574 0.144,-0.641C0.206,-0.707 0.293,-0.741 0.406,-0.741C0.479,-0.741 0.556,-0.73 0.635,-0.708L0.635,-0.613C0.536,-0.647 0.459,-0.664 0.406,-0.664C0.328,-0.664 0.267,-0.638 0.224,-0.584C0.181,-0.531 0.16,-0.457 0.16,-0.36C0.16,-0.265 0.183,-0.191 0.229,-0.138C0.275,-0.085 0.34,-0.059 0.423,-0.059C0.458,-0.059 0.494,-0.065 0.534,-0.077L0.534,-0.312L0.636,-0.312L0.636,-0.02Z" style="fill-rule:nonzero;"/>
                        </g>
                        <g transform="matrix(50,0,0,50,1001.01,767.021)">
                            <rect x="0.093" y="-0.723" width="0.103" height="0.723" style="fill-rule:nonzero;"/>
                        </g>
                        <g transform="matrix(50,0,0,50,1015.42,767.021)">
                            <path d="M0.093,0L0.093,-0.723L0.312,-0.723C0.381,-0.723 0.434,-0.707 0.471,-0.677C0.508,-0.646 0.527,-0.602 0.527,-0.543C0.527,-0.447 0.478,-0.379 0.381,-0.338L0.622,0L0.496,0L0.291,-0.306L0.195,-0.306L0.195,0L0.093,0ZM0.195,-0.382L0.228,-0.382C0.357,-0.382 0.421,-0.433 0.421,-0.534C0.421,-0.609 0.367,-0.646 0.259,-0.646L0.195,-0.646L0.195,-0.382Z" style="fill-rule:nonzero;"/>
                        </g>
                    </g>
                </g>
            </g>
        </g>
        <g transform="matrix(1,0,0,1,-8067.65,0)">
            <g transform="matrix(0.713288,0.00067506,-0.0006666,0.704348,1007.33,1059.08)">
                <rect x="11720.7" y="759.252" width="363.914" height="115.481" style="fill:none;"/>
                <clipPath id="_clip9">
                    <rect x="11720.7" y="759.252" width="363.914" height="115.481"/>
                </clipPath>
                <g clip-path="url(#_clip9)">
                    <g transform="matrix(1,1.68519e-34,-1.92593e-34,1,78.1133,-91.6456)">
                        <rect x="11642.6" y="850.898" width="363.914" height="115.481" style="fill:rgb(255,203,0);"/>
                        <path d="M12006.5,850.898L12006.5,966.379L11642.6,966.379L11642.6,850.898L12006.5,850.898ZM11645.5,963.421L12003.5,963.421L12003.5,853.855L11645.5,853.855L11645.5,963.421Z"/>
                    </g>
                    <g transform="matrix(1.40196,-0.00134366,0.00132682,1.41975,10491.3,-246.216)">
                        <g transform="matrix(50,0,0,50,969.48,767.021)">
                            <path d="M0.235,0.018C0.186,0.018 0.124,0.007 0.049,-0.014L0.049,-0.115C0.13,-0.077 0.197,-0.059 0.25,-0.059C0.29,-0.059 0.322,-0.069 0.347,-0.09C0.372,-0.111 0.384,-0.139 0.384,-0.174C0.384,-0.202 0.376,-0.226 0.36,-0.246C0.344,-0.266 0.314,-0.288 0.271,-0.313L0.221,-0.341C0.159,-0.376 0.116,-0.41 0.091,-0.441C0.065,-0.472 0.053,-0.508 0.053,-0.549C0.053,-0.605 0.073,-0.651 0.113,-0.687C0.154,-0.723 0.205,-0.741 0.268,-0.741C0.323,-0.741 0.382,-0.731 0.444,-0.713L0.444,-0.619C0.368,-0.649 0.311,-0.664 0.273,-0.664C0.238,-0.664 0.209,-0.655 0.186,-0.636C0.162,-0.617 0.151,-0.593 0.151,-0.564C0.151,-0.54 0.159,-0.519 0.176,-0.5C0.193,-0.482 0.224,-0.46 0.269,-0.434L0.321,-0.405C0.383,-0.369 0.427,-0.336 0.452,-0.304C0.476,-0.273 0.489,-0.235 0.489,-0.19C0.489,-0.128 0.466,-0.077 0.419,-0.039C0.373,-0.001 0.311,0.018 0.235,0.018Z" style="fill-rule:nonzero;"/>
                        </g>
                        <g transform="matrix(50,0,0,50,996.409,767.021)">
                            <rect x="0.093" y="-0.723" width="0.103" height="0.723" style="fill-rule:nonzero;"/>
                        </g>
                        <g transform="matrix(50,0,0,50,1010.81,767.021)">
                            <path d="M0.093,0L0.093,-0.723L0.312,-0.723C0.381,-0.723 0.434,-0.707 0.471,-0.677C0.508,-0.646 0.527,-0.602 0.527,-0.543C0.527,-0.447 0.478,-0.379 0.381,-0.338L0.622,0L0.496,0L0.291,-0.306L0.195,-0.306L0.195,0L0.093,0ZM0.195,-0.382L0.228,-0.382C0.357,-0.382 0.421,-0.433 0.421,-0.534C0.421,-0.609 0.367,-0.646 0.259,-0.646L0.195,-0.646L0.195,-0.382Z" style="fill-rule:nonzero;"/>
                        </g>
                    </g>
                </g>
            </g>
        </g>
        <g transform="matrix(1,0,0,1,-8067.65,0)">
            <g transform="matrix(0.713288,0.00067506,-0.0006666,0.704348,629.379,1059.08)">
                <rect x="11720.7" y="759.252" width="363.914" height="115.481" style="fill:none;"/>
                <clipPath id="_clip10">
                    <rect x="11720.7" y="759.252" width="363.914" height="115.481"/>
                </clipPath>
                <g clip-path="url(#_clip10)">
                    <g transform="matrix(1,1.68519e-34,-1.92593e-34,1,78.1133,-91.6456)">
                        <rect x="11642.6" y="850.898" width="363.914" height="115.481" style="fill:rgb(255,203,0);"/>
                        <path d="M12006.5,850.898L12006.5,966.379L11642.6,966.379L11642.6,850.898L12006.5,850.898ZM11645.5,963.421L12003.5,963.421L12003.5,853.855L11645.5,853.855L11645.5,963.421Z"/>
                    </g>
                    <g transform="matrix(1.40196,-0.00134366,0.00132682,1.41975,10491.3,-246.216)">
                        <g transform="matrix(50,0,0,50,959.434,767.021)">
                            <path d="M0.459,-0.276L0.336,-0.588L0.213,-0.276L0.459,-0.276ZM0.568,0L0.489,-0.2L0.183,-0.2L0.104,0L0.008,0L0.295,-0.723L0.396,-0.723L0.679,0L0.568,0Z" style="fill-rule:nonzero;"/>
                        </g>
                        <g transform="matrix(50,0,0,50,993.931,767.021)">
                            <path d="M0.235,0.018C0.186,0.018 0.124,0.007 0.049,-0.014L0.049,-0.115C0.13,-0.077 0.197,-0.059 0.25,-0.059C0.29,-0.059 0.322,-0.069 0.347,-0.09C0.372,-0.111 0.384,-0.139 0.384,-0.174C0.384,-0.202 0.376,-0.226 0.36,-0.246C0.344,-0.266 0.314,-0.288 0.271,-0.313L0.221,-0.341C0.159,-0.376 0.116,-0.41 0.091,-0.441C0.065,-0.472 0.053,-0.508 0.053,-0.549C0.053,-0.605 0.073,-0.651 0.113,-0.687C0.154,-0.723 0.205,-0.741 0.268,-0.741C0.323,-0.741 0.382,-0.731 0.444,-0.713L0.444,-0.619C0.368,-0.649 0.311,-0.664 0.273,-0.664C0.238,-0.664 0.209,-0.655 0.186,-0.636C0.162,-0.617 0.151,-0.593 0.151,-0.564C0.151,-0.54 0.159,-0.519 0.176,-0.5C0.193,-0.482 0.224,-0.46 0.269,-0.434L0.321,-0.405C0.383,-0.369 0.427,-0.336 0.452,-0.304C0.476,-0.273 0.489,-0.235 0.489,-0.19C0.489,-0.128 0.466,-0.077 0.419,-0.039C0.373,-0.001 0.311,0.018 0.235,0.018Z" style="fill-rule:nonzero;"/>
                        </g>
                        <g transform="matrix(50,0,0,50,1020.86,767.021)">
                            <path d="M0.265,0L0.265,-0.646L0.009,-0.646L0.009,-0.723L0.624,-0.723L0.624,-0.646L0.368,-0.646L0.368,0L0.265,0Z" style="fill-rule:nonzero;"/>
                        </g>
                    </g>
                </g>
            </g>
        </g>
        <g transform="matrix(1,0,0,1,-8067.65,0)">
            <g transform="matrix(0.713288,0.00067506,-0.0006666,0.704348,251.237,1059.08)">
                <rect x="11720.7" y="759.252" width="363.914" height="115.481" style="fill:none;"/>
                <clipPath id="_clip11">
                    <rect x="11720.7" y="759.252" width="363.914" height="115.481"/>
                </clipPath>
                <g clip-path="url(#_clip11)">
                    <g transform="matrix(1,1.68519e-34,-1.92593e-34,1,78.1133,-91.6456)">
                        <rect x="11642.6" y="850.898" width="363.914" height="115.481" style="fill:rgb(255,203,0);"/>
                        <path d="M12006.5,850.898L12006.5,966.379L11642.6,966.379L11642.6,850.898L12006.5,850.898ZM11645.5,963.421L12003.5,963.421L12003.5,853.855L11645.5,853.855L11645.5,963.421Z"/>
                    </g>
                    <g transform="matrix(1.40196,-0.00134366,0.00132682,1.41975,10491.3,-246.216)">
                        <g transform="matrix(50,0,0,50,963.425,767.021)">
                            <path d="M0.093,0L0.093,-0.723L0.196,-0.723L0.196,-0.077L0.521,-0.077L0.521,0L0.093,0Z" style="fill-rule:nonzero;"/>
                        </g>
                        <g transform="matrix(50,0,0,50,990.086,767.021)">
                            <path d="M0.093,0L0.093,-0.723L0.497,-0.723L0.497,-0.646L0.196,-0.646L0.196,-0.414L0.448,-0.414L0.448,-0.338L0.196,-0.338L0.196,-0.077L0.518,-0.077L0.518,0L0.093,0Z" style="fill-rule:nonzero;"/>
                        </g>
                        <g transform="matrix(50,0,0,50,1017.19,767.021)">
                            <path d="M0.008,0L0.248,-0.363L0.02,-0.723L0.141,-0.723L0.314,-0.45L0.497,-0.723L0.594,-0.723L0.363,-0.374L0.6,0L0.479,0L0.295,-0.287L0.105,0L0.008,0Z" style="fill-rule:nonzero;"/>
                        </g>
                    </g>
                </g>
            </g>
        </g>
        <g transform="matrix(1,0,0,1,-8067.65,0)">
            <g transform="matrix(0.713288,0.00067506,-0.0006666,0.704348,-126.526,1059.08)">
                <rect x="11720.7" y="759.252" width="363.914" height="115.481" style="fill:none;"/>
                <clipPath id="_clip12">
                    <rect x="11720.7" y="759.252" width="363.914" height="115.481"/>
                </clipPath>
                <g clip-path="url(#_clip12)">
                    <g transform="matrix(1,1.68519e-34,-1.92593e-34,1,78.1133,-91.6456)">
                        <rect x="11642.6" y="850.898" width="363.914" height="115.481" style="fill:rgb(255,203,0);"/>
                        <path d="M12006.5,850.898L12006.5,966.379L11642.6,966.379L11642.6,850.898L12006.5,850.898ZM11645.5,963.421L12003.5,963.421L12003.5,853.855L11645.5,853.855L11645.5,963.421Z"/>
                    </g>
                    <g transform="matrix(1.40196,-0.00134366,0.00132682,1.41975,10491.3,-246.216)">
                        <g transform="matrix(50,0,0,50,960.923,767.021)">
                            <path d="M0.093,-0.097C0.103,-0.097 0.112,-0.095 0.121,-0.09C0.129,-0.085 0.135,-0.079 0.14,-0.071C0.145,-0.063 0.147,-0.053 0.147,-0.043C0.147,-0.033 0.145,-0.023 0.14,-0.015C0.135,-0.007 0.128,-0.001 0.12,0.004C0.112,0.009 0.103,0.011 0.093,0.011C0.08,0.011 0.068,0.006 0.056,-0.003C0.045,-0.013 0.039,-0.026 0.039,-0.043C0.039,-0.058 0.044,-0.071 0.055,-0.081C0.065,-0.092 0.078,-0.097 0.093,-0.097Z" style="fill-rule:nonzero;"/>
                        </g>
                        <g transform="matrix(50,0,0,50,970.225,767.021)">
                            <path d="M0.046,0L0.046,-0.082L0.435,-0.646L0.07,-0.646L0.07,-0.723L0.558,-0.723L0.558,-0.646L0.169,-0.082L0.558,-0.082L0.558,0L0.046,0Z" style="fill-rule:nonzero;"/>
                        </g>
                        <g transform="matrix(50,0,0,50,1000.45,767.021)">
                            <rect x="0.093" y="-0.723" width="0.103" height="0.723" style="fill-rule:nonzero;"/>
                        </g>
                        <g transform="matrix(50,0,0,50,1014.85,767.021)">
                            <path d="M0.636,-0.02C0.549,0.006 0.472,0.018 0.407,0.018C0.292,0.018 0.204,-0.015 0.143,-0.08C0.081,-0.146 0.051,-0.239 0.051,-0.361C0.051,-0.481 0.082,-0.574 0.144,-0.641C0.206,-0.707 0.293,-0.741 0.406,-0.741C0.479,-0.741 0.556,-0.73 0.635,-0.708L0.635,-0.613C0.536,-0.647 0.459,-0.664 0.406,-0.664C0.328,-0.664 0.267,-0.638 0.224,-0.584C0.181,-0.531 0.16,-0.457 0.16,-0.36C0.16,-0.265 0.183,-0.191 0.229,-0.138C0.275,-0.085 0.34,-0.059 0.423,-0.059C0.458,-0.059 0.494,-0.065 0.534,-0.077L0.534,-0.312L0.636,-0.312L0.636,-0.02Z" style="fill-rule:nonzero;"/>
                        </g>
                    </g>
                </g>
            </g>
        </g>
    </g>
    <defs>
        <radialGradient id="_Radial1" cx="0" cy="0" r="1" gradientUnits="userSpaceOnUse" gradientTransform="matrix(1133.86,0,0,263,9484.32,1996.36)"><stop offset="0" style="stop-color:rgb(0,180,255);stop-opacity:1"/><stop offset="1" style="stop-color:rgb(0,108,153);stop-opacity:1"/></radialGradient>
    </defs>
</svg>
